<svg xmlns="http://www.w3.org/2000/svg" xmlns:xlink="http://www.w3.org/1999/xlink" id="Favicon__x2F__64_32_24_16" viewBox="0 0 64 64" preserveAspectRatio="xMidYMid meet"><path id="Favicon_Background" fill="#03111F" stroke="#1F4365" stroke-miterlimit="10" d="M0,52V12C0,5.4,5.4,0,12,0h40  c6.6,0,12,5.4,12,12v40c0,6.6-5.4,12-12,12H12C5.4,64,0,58.6,0,52z"/><g id="PF_Favicon_Mark__x2F__Simplified_Trace__x2F__Native_AI"><g><defs><rect id="SVGID_1_" x="7" y="12.375" width="50" height="39.25"/></defs><clipPath id="SVGID_00000079443793400637510730000007486515918233884845_"><use xlink:href="#SVGID_1_" overflow="visible"/></clipPath><g clip-path="url(#SVGID_00000079443793400637510730000007486515918233884845_)"><defs><rect id="SVGID_00000145034740184164529140000006630087818047164330_" x="7" y="12.375" width="50" height="39.25"/></defs><clipPath id="SVGID_00000091006136448571981400000018146152971803514536_"><use xlink:href="#SVGID_00000145034740184164529140000006630087818047164330_" overflow="visible"/></clipPath><path clip-path="url(#SVGID_00000091006136448571981400000018146152971803514536_)" fill="#4BEBFF" d="M31.261,23.254     c-0.445-0.354-0.98-0.709-1.465-1.012c-0.514-0.322-1.656-0.582-1.055-1.35l21.019-0.009c2.548-0.088,5.09-1.787,6.227-4.053     c0.143-0.284,0.314-0.53-0.016-0.765l-19.21-0.051c-6.624,0.732-14.207-1.376-19.713,3.277c-1.22,1.031-2.02,2.304-2.295,3.873     l0.008,15.241c-0.041,0.468-0.329,1.043-0.382,1.487c-0.155,1.308-0.126,4.556-0.002,5.896c0.089,0.965,0.59,1.888,0.573,2.985     c-0.007,0.455-0.498,1.999-0.007,2.247c0.273,0.138,1.683-0.346,2.052-0.475c1.75-0.611,4.976-2.097,5.147-4.198     c0.032-0.392,0.047-3.275-0.046-3.419c-0.443-0.689-1.453,1.859-2.095,0.973c0.086-1.297-0.159-2.838-0.017-4.104     c0.009-0.084,0.011-0.151,0.05-0.23c0.097-0.191,1.52-0.768,1.827-0.883c2.647-0.999,5.702-1.329,8.19-2.651     c2.304-1.224,4.429-3.44,6.942-4.085c3.938-1.011,9.311,1.145,12.577-1.722c0.56-0.492,1.755-1.893,2.029-2.553     c0.149-0.36-0.09-0.592-0.437-0.632c-0.715-0.081-1.474,0.09-2.15,0.103c-1.788,0.034-3.554,0.025-5.327-0.008     c-1.05-0.02-2.201,0.168-3.186,0.102c-0.751-0.05-0.728-0.147-1.512-0.024c-1.666,0.261-2.759,0.525-4.134,1.566     c-0.317,0.24-0.327,0.68-0.88,0.497c-0.122-0.04-0.133-0.108-0.153-0.221c-0.088-0.482,0.075-1.172-0.004-1.678     C33.563,25.749,32.542,24.272,31.261,23.254"/><path clip-path="url(#SVGID_00000091006136448571981400000018146152971803514536_)" fill="#4BEBFF" d="M31.261,23.254     c1.281,1.019,2.302,2.495,2.557,4.125c0.079,0.506-0.084,1.196,0.004,1.678c0.021,0.112,0.031,0.18,0.153,0.221     c0.553,0.184,0.563-0.257,0.88-0.497c1.375-1.041,2.468-1.305,4.134-1.566c0.784-0.123,0.76-0.027,1.512,0.024     c0.984,0.066,2.136-0.121,3.186-0.102c1.773,0.033,3.539,0.042,5.327,0.008c0.677-0.013,1.435-0.183,2.15-0.103     c0.347,0.039,0.587,0.272,0.437,0.632c-0.274,0.66-1.469,2.062-2.029,2.553c-3.266,2.868-8.638,0.712-12.577,1.722     c-2.514,0.645-4.638,2.861-6.942,4.085c-2.488,1.322-5.543,1.652-8.19,2.651c-0.307,0.116-1.73,0.693-1.827,0.883     c-0.04,0.078-0.041,0.146-0.051,0.23c-0.141,1.266,0.104,2.807,0.017,4.104c0.641,0.886,1.652-1.662,2.095-0.973     c0.092,0.144,0.078,3.027,0.046,3.419c-0.172,2.101-3.397,3.587-5.147,4.198c-0.369,0.129-1.779,0.612-2.052,0.475     c-0.49-0.248,0-1.792,0.007-2.247c0.017-1.098-0.484-2.02-0.573-2.985c-0.124-1.34-0.153-4.588,0.002-5.896     c0.053-0.444,0.341-1.019,0.382-1.487l-0.008-15.241c0.275-1.569,1.075-2.842,2.295-3.873c5.506-4.653,13.09-2.546,19.713-3.277     l19.21,0.051c0.331,0.234,0.159,0.48,0.016,0.765c-1.137,2.266-3.679,3.964-6.227,4.053l-21.019,0.009     c-0.602,0.768,0.54,1.028,1.055,1.35C30.281,22.545,30.816,22.9,31.261,23.254 M19.991,24.851v9.158     c0,0.172,0.438,0.148,0.586,0.119c0.37-0.072,0.806-0.464,1.068-0.521c1.195-0.262,2.384-0.594,3.556-0.93     c1.779-0.511,3.748-0.941,5.342-1.948c0.189-0.119,0.819-0.57,0.851-0.737c0.136-0.708-0.219-1.075-0.692-1.503     c-1.027-0.928-2.294-1.538-3.544-2.113c-1.73-0.796-3.912-1.818-5.673-2.458c-0.477-0.174-0.895-0.31-1.199,0.199     C20.23,24.209,20.004,24.768,19.991,24.851"/><path clip-path="url(#SVGID_00000091006136448571981400000018146152971803514536_)" fill="#4BEBFF" d="M19.991,24.851     c0.014-0.083,0.239-0.642,0.294-0.734c0.305-0.509,0.722-0.373,1.199-0.199c1.761,0.64,3.943,1.662,5.673,2.458     c1.25,0.575,2.517,1.185,3.544,2.113c0.474,0.428,0.828,0.795,0.692,1.503c-0.032,0.167-0.663,0.618-0.851,0.737     c-1.594,1.007-3.563,1.437-5.342,1.948c-1.172,0.337-2.36,0.668-3.556,0.93c-0.262,0.057-0.698,0.449-1.068,0.521     c-0.148,0.029-0.586,0.053-0.586-0.119V24.851z"/></g></g></g></svg>
